 <svg version="1.0" xmlns="http://www.w3.org/2000/svg" width="700.000000pt" height="700.000000pt" viewBox="0 0 700.000000 700.000000" preserveAspectRatio="xMidYMid meet">
<metadata>
Created by potrace 1.12, written by Peter Selinger 2001-2015
</metadata>
<g transform="translate(0.000000,700.000000) scale(0.100000,-0.100000)" fill="#000000" stroke="none">
<path d="M3120 6540 c-144 -14 -228 -36 -378 -100 -105 -45 -172 -66 -285 -90
-176 -37 -209 -51 -304 -123 -65 -50 -124 -78 -268 -128 -24 -9 -71 -44 -120
-90 -44 -42 -105 -92 -135 -111 -30 -19 -79 -62 -109 -96 -29 -34 -81 -83
-115 -109 -33 -26 -70 -58 -80 -72 -10 -14 -60 -66 -110 -116 -57 -56 -107
-116 -131 -159 -22 -38 -61 -87 -88 -110 -58 -49 -87 -95 -123 -196 -37 -104
-59 -145 -116 -215 -53 -66 -72 -117 -113 -302 -22 -103 -38 -148 -119 -341
-59 -138 -81 -372 -73 -777 8 -392 24 -491 107 -675 58 -128 63 -144 94 -293
29 -138 57 -204 114 -270 53 -61 62 -78 106 -206 44 -127 60 -153 126 -209 28
-24 65 -69 82 -100 18 -32 61 -86 97 -120 36 -35 89 -94 116 -130 28 -37 80
-89 117 -117 36 -27 88 -74 114 -103 26 -30 73 -68 103 -85 31 -17 89 -64 129
-103 67 -66 80 -75 175 -109 130 -48 158 -63 232 -120 80 -64 118 -78 292
-115 111 -24 180 -45 278 -87 72 -31 163 -64 204 -74 124 -30 339 -42 646 -36
402 9 492 23 661 102 108 51 152 65 324 101 149 30 189 47 254 103 57 50 130
87 246 127 74 25 94 38 155 95 39 36 106 89 151 117 44 28 95 70 113 92 17 22
65 64 105 94 41 30 94 82 121 117 26 35 70 83 96 107 27 24 68 76 90 115 23
40 72 104 110 142 65 66 71 77 112 191 54 146 56 151 113 216 58 64 77 109
104 244 29 145 53 220 105 334 84 184 100 309 100 765 -1 429 -17 549 -100
735 -51 114 -79 200 -100 312 -24 132 -50 198 -101 258 -50 60 -99 156 -134
265 -20 62 -31 78 -95 140 -41 41 -90 102 -114 143 -24 41 -61 90 -83 110 -22
20 -67 70 -100 110 -33 40 -86 90 -118 112 -32 22 -80 65 -107 95 -26 31 -79
76 -118 102 -38 25 -104 78 -145 117 -66 63 -85 74 -160 100 -116 40 -189 77
-246 127 -65 56 -105 73 -254 103 -172 36 -216 50 -324 101 -107 50 -175 70
-296 85 -111 14 -708 21 -830 10z m720 -431 c156 -14 257 -39 372 -93 53 -25
132 -55 175 -67 268 -74 294 -84 380 -160 35 -31 95 -69 151 -95 66 -31 111
-60 155 -102 34 -32 94 -81 132 -109 92 -67 229 -209 292 -303 28 -41 74 -97
103 -125 37 -36 65 -76 96 -140 24 -51 66 -117 95 -150 66 -76 89 -127 134
-295 20 -74 52 -171 72 -215 111 -251 118 -293 118 -755 -1 -463 -7 -506 -119
-756 -20 -45 -50 -135 -66 -200 -41 -160 -74 -236 -133 -303 -29 -33 -68 -95
-94 -150 -32 -67 -62 -113 -102 -155 -32 -34 -77 -88 -101 -121 -59 -83 -211
-236 -295 -298 -38 -28 -98 -77 -132 -109 -44 -42 -89 -71 -155 -102 -56 -26
-116 -64 -151 -95 -86 -76 -112 -86 -380 -160 -43 -12 -122 -42 -175 -67 -174
-81 -331 -104 -717 -104 -246 1 -375 10 -501 35 -73 15 -109 28 -279 99 -33
14 -112 39 -175 56 -150 41 -219 73 -298 138 -36 29 -104 71 -150 93 -60 28
-105 59 -151 103 -36 35 -100 86 -143 115 -87 60 -244 217 -305 306 -23 33
-65 83 -94 110 -38 37 -64 74 -95 141 -23 50 -64 115 -89 145 -67 78 -102 153
-142 306 -19 76 -58 188 -88 256 -84 191 -105 332 -105 704 0 392 21 537 109
736 27 62 64 168 82 237 40 158 72 230 137 304 29 33 70 98 96 151 32 68 59
107 103 151 33 32 82 93 110 134 60 89 202 229 293 290 36 24 95 71 131 106
46 44 91 75 151 103 46 22 114 64 150 93 79 65 148 97 298 138 63 17 142 42
175 56 170 71 206 84 280 99 44 9 116 20 160 24 121 12 555 12 685 0z"></path>
</g>
</svg>