<?xml version="1.0" encoding="iso-8859-1"?>
<!-- Generator: Adobe Illustrator 19.0.0, SVG Export Plug-In . SVG Version: 6.00 Build 0)  -->
<svg version="1.1" id="Capa_1" xmlns="http://www.w3.org/2000/svg" xmlns:xlink="http://www.w3.org/1999/xlink" x="0px" y="0px"
	 viewBox="0 0 469.333 469.333" style="enable-background:new 0 0 469.333 469.333;" xml:space="preserve">
<g>
	<g>
		<path d="M469.333,78.552C469.333,35.24,434.104,0,390.791,0c-20.979,0-40.708,8.167-55.542,23.01l-73.917,73.906l-8.458-8.458
			c-4.167-4.167-10.917-4.167-15.083,0l-42.667,42.667c-4.167,4.167-4.167,10.917,0,15.083L208.916,160L58.291,310.625
			c-10.083,10.073-15.625,23.469-15.625,37.719c0,14.219-4.167,28-12.063,39.865L1.791,431.417
			c-2.813,4.229-2.271,9.865,1.333,13.458l21.333,21.333c2.063,2.063,4.792,3.125,7.542,3.125c2.042,0,4.104-0.583,5.917-1.792
			L83,437.49c10.604-7.083,22.958-10.823,35.729-10.823c14.625,0,28.729-6.063,38.708-16.635
			c19.542-20.781,136.866-135.411,151.734-149.776l13.953,13.953c2.083,2.083,4.813,3.125,7.542,3.125
			c2.729,0,5.458-1.042,7.542-3.125l42.667-42.667c4.167-4.167,4.167-10.917,0-15.083L372.416,208l73.917-73.906
			C461.166,119.26,469.333,99.542,469.333,78.552z M208.214,298.667h-77.632l108.5-108.5l39.913,39.913
			C261.418,247.064,236.487,271.194,208.214,298.667z"/>
	</g>
</g>
<g>
</g>
<g>
</g>
<g>
</g>
<g>
</g>
<g>
</g>
<g>
</g>
<g>
</g>
<g>
</g>
<g>
</g>
<g>
</g>
<g>
</g>
<g>
</g>
<g>
</g>
<g>
</g>
<g>
</g>
</svg>
