 <svg version="1.0" xmlns="http://www.w3.org/2000/svg" width="700.000000pt" height="700.000000pt" viewBox="0 0 700.000000 700.000000" preserveAspectRatio="xMidYMid meet">
<metadata>
Created by potrace 1.12, written by Peter Selinger 2001-2015
</metadata>
<g transform="translate(0.000000,700.000000) scale(0.100000,-0.100000)" fill="#000000" stroke="none">
<path d="M522 6540 c-33 -15 -47 -29 -62 -62 -19 -42 -20 -92 -20 -2978 0
-2886 1 -2936 20 -2978 15 -33 29 -47 62 -62 42 -19 92 -20 2978 -20 2886 0
2936 1 2978 20 33 15 47 29 62 62 19 42 20 92 20 2978 0 2886 -1 2936 -20
2978 -15 33 -29 47 -62 62 -42 19 -92 20 -2978 20 -2886 0 -2936 -1 -2978 -20z"></path>
</g>
</svg>