<?xml version="1.0" encoding="iso-8859-1"?>
<!-- Generator: Adobe Illustrator 19.0.0, SVG Export Plug-In . SVG Version: 6.00 Build 0)  -->
<svg version="1.1" id="Layer_1" xmlns="http://www.w3.org/2000/svg" xmlns:xlink="http://www.w3.org/1999/xlink" x="0px" y="0px"
	 viewBox="0 0 508.013 508.013" style="enable-background:new 0 0 508.013 508.013;" xml:space="preserve">
<g>
	<g>
		<path d="M490.3,133.177l-99.5-99.6c-33-33-74-11.4-85.5,0l-287.6,287.7c-23.6,23.6-23.6,61.9,0,85.5l81.1,81.1
			c2.6,2.6,6.2,4.1,10,4.1h102.4c3.7,0,7.3-1.5,10-4.1l269.2-269.2C513.9,195.077,513.9,156.777,490.3,133.177z M205.3,463.777
			h-90.7l-77-77c-12.6-12.6-12.6-33,0-45.5l67.4-67.4l145.1,145.1L205.3,463.777z M470.4,198.677l-200.3,200.3L125,253.877
			l200.3-200.3c6.1-6.1,27-18.5,45.5,0l99.5,99.5C482.9,165.777,482.9,186.177,470.4,198.677z"/>
	</g>
</g>
<g>
</g>
<g>
</g>
<g>
</g>
<g>
</g>
<g>
</g>
<g>
</g>
<g>
</g>
<g>
</g>
<g>
</g>
<g>
</g>
<g>
</g>
<g>
</g>
<g>
</g>
<g>
</g>
<g>
</g>
</svg>
