 <svg version="1.0" xmlns="http://www.w3.org/2000/svg" width="700.000000pt" height="700.000000pt" viewBox="0 0 700.000000 700.000000" preserveAspectRatio="xMidYMid meet">
<metadata>
Created by potrace 1.12, written by Peter Selinger 2001-2015
</metadata>
<g transform="translate(0.000000,700.000000) scale(0.100000,-0.100000)" fill="#000000" stroke="none">
<path d="M502 6514 c-12 -8 -30 -30 -40 -47 -16 -30 -17 -197 -20 -2965 -2
-2901 -2 -2934 17 -2978 16 -36 29 -49 65 -65 44 -19 77 -19 2978 -17 2239 2
2939 6 2960 15 43 19 68 53 68 93 0 40 -28 72 -113 130 -27 17 -69 58 -93 90
-25 32 -69 74 -99 94 -29 20 -71 63 -94 95 -43 62 -78 96 -153 148 -25 17 -65
59 -87 92 -23 33 -65 78 -94 100 -55 41 -86 73 -131 134 -16 22 -57 60 -92 85
-38 27 -84 73 -113 112 -29 41 -73 84 -111 111 -40 28 -81 68 -110 109 -26 36
-72 84 -103 108 -32 24 -72 62 -90 85 -17 23 -56 64 -85 92 -54 51 -122 119
-210 210 -27 28 -67 65 -90 83 -24 19 -61 58 -83 88 -22 31 -69 76 -104 101
-37 26 -82 71 -104 103 -40 56 -74 90 -144 140 -19 13 -55 53 -81 87 -27 36
-72 80 -107 104 -34 22 -75 62 -92 87 -52 74 -85 108 -137 142 -30 19 -70 59
-99 100 -31 42 -73 84 -112 111 -39 28 -80 68 -109 109 -26 36 -72 84 -103
108 -32 24 -72 62 -90 85 -17 23 -56 64 -85 92 -54 51 -122 119 -210 210 -27
28 -67 65 -90 83 -24 19 -61 58 -83 88 -22 31 -69 76 -104 101 -37 26 -82 71
-104 103 -40 56 -74 90 -144 140 -19 13 -55 53 -81 87 -27 36 -72 80 -107 104
-34 22 -75 61 -92 87 -54 76 -78 102 -131 137 -28 19 -76 67 -106 107 -33 43
-79 88 -115 112 -37 26 -75 64 -103 104 -25 35 -71 83 -108 111 -36 27 -85 76
-109 109 -25 35 -76 84 -117 115 -40 30 -91 79 -112 109 -22 30 -68 76 -103
103 -35 26 -83 76 -106 109 -25 35 -71 82 -110 111 -36 28 -86 77 -110 110
-24 33 -69 79 -100 103 -31 23 -74 69 -96 101 -66 97 -116 122 -169 85z"></path>
</g>
</svg>